# xmcd
#
# Track frame offsets: 
#        150
#        15352
#        28710
#        49962
#        68785
#        83702
#        101445
#        119530
#        130677
#        149905
#        156919
#        169807
#        192610
#        207287
#
# Disc length: 3012 seconds
#
# Revision: 0
# Processed by: cddbd v1.5.1PL0 Copyright (c) Steve Scherf et al.
# Submitted via: ExactAudioCopy v0.95a4
#
DISCID=c90bc20e
DTITLE=Cast Iron Filter - Falls Of Rough
DYEAR=2004
DGENRE=Bluegrass
TTITLE0=Model T Ford
TTITLE1=Hold Your Heads Up High
TTITLE2=Chronicle
TTITLE3=Murder Makes A Crimson Sky
TTITLE4=Redemption
TTITLE5=Where The River Fades
TTITLE6=27 Dollars And A Wedding Ring
TTITLE7=Stringtown
TTITLE8=Power Of My Hands
TTITLE9=When You Walk Into The Shining Light
TTITLE10=Wiregrass Trail
TTITLE11=Grayson County
TTITLE12=Men Who Die Young
TTITLE13=Falls Of Rough
EXTD=
EXTT0=
EXTT1=
EXTT2=
EXTT3=
EXTT4=
EXTT5=
EXTT6=
EXTT7=
EXTT8=
EXTT9=
EXTT10=
EXTT11=
EXTT12=
EXTT13=
PLAYORDER=
